<?xml version="1.0" encoding="utf-8"?>
<!-- Generator: Adobe Illustrator 19.2.1, SVG Export Plug-In . SVG Version: 6.00 Build 0)  -->
<svg version="1.1" id="Layer_1" xmlns="http://www.w3.org/2000/svg" xmlns:xlink="http://www.w3.org/1999/xlink" x="0px" y="0px"
	 viewBox="0 0 265 193" style="enable-background:new 0 0 265 193;" xml:space="preserve">
<style type="text/css">
	.st0{fill:#EAE3F0;}
	.st1{fill:#D6C7E1;}
	.st2{fill:#C1ABD2;}
	.st3{fill:#AC90C3;}
	.st4{fill:#CCD1D3;}
	.st5{fill:#A3ABAF;}
	.st6{fill:#3498DB;}
	.st7{fill:#2980B9;}
	.st8{fill:#E67E22;}
	.st9{fill:#D35401;}
	.st10{fill:#F1C40F;}
	.st11{fill:#E49701;}
	.st12{fill:#EADF5A;}
	.st13{fill:#D7C320;}
	.st14{fill:#34495E;}
	.st15{fill:#2C3E50;}
	.st16{fill:#2B2B2B;}
	.st17{fill:#262626;}
	.st18{fill:#3A6F81;}
	.st19{fill:#356272;}
	.st20{fill:#0075A8;}
	.st21{fill:#00558B;}
	.st22{fill:#27AE60;}
	.st23{fill:#169242;}
	.st24{fill:#A5C63B;}
	.st25{fill:#8EB021;}
	.st26{fill:#ECF0F1;}
	.st27{fill:#BDC3C7;}
	.st28{fill:#95A5A6;}
	.st29{fill:#7F8C8D;}
	.st30{fill:#E74C3C;}
	.st31{fill:#C0392B;}
	.st32{fill:#F15354;}
	.st33{fill:#EA3738;}
	.st34{fill:#78C9CF;}
	.st35{fill:#389EA8;}
	.st36{fill:#2D8490;}
	.st37{fill:#1A6470;}
	.st38{fill:#21364A;}
	.st39{fill:#040B15;}
	.st40{fill:#99A3A8;}
	.st41{fill:#66767C;}
	.st42{fill:#334851;}
	.st43{fill:#5C686F;}
	.st44{fill:#29373C;}
	.st45{fill:#0A141A;}
	.st46{fill:none;stroke:#78C9CF;stroke-miterlimit:10;}
	.st47{fill:#9874B4;}
	.st48{fill:none;stroke:#78C9CF;stroke-width:10;stroke-linecap:round;stroke-linejoin:round;}
	
		.st49{fill:none;stroke:#78C9CF;stroke-width:10;stroke-linecap:round;stroke-linejoin:round;stroke-dasharray:9.824,14.7359,14.7359,14.7359;}
	
		.st50{fill:none;stroke:#78C9CF;stroke-width:10;stroke-linecap:round;stroke-linejoin:round;stroke-dasharray:0.9824,14.7359,9.824,14.7359,14.7359,14.7359;}
	.st51{fill:none;stroke:#78C9CF;stroke-width:10;stroke-miterlimit:10;}
	.st52{fill:#C1ACD2;}
	.st53{fill:#AD90C3;}
	.st54{fill:#CCE3EE;}
	.st55{fill:#003B54;}
	.st56{fill:#00587E;}
	.st57{fill:#66ACCB;}
	.st58{fill:#99C8DC;}
</style>
<path class="st55" d="M123.2,11c0-4.8,3.9-8.8,8.8-8.8s8.8,3.9,8.8,8.8v166c0,4.8-3.9,8.8-8.8,8.8s-8.8-3.9-8.8-8.8V11z"/>
<path class="st56" d="M147.5,131c0,4.8,3.9,8.8,8.8,8.8s8.8-3.9,8.8-8.8V35c0-4.8-3.9-8.8-8.8-8.8s-8.8,3.9-8.8,8.8V131z"/>
<path class="st20" d="M171.8,82c0,4.8,3.9,8.8,8.8,8.8c4.8,0,8.8-3.9,8.8-8.8V21c0-4.8-3.9-8.7-8.8-8.7c-4.8,0-8.8,3.9-8.8,8.7V82z"
	/>
<path class="st57" d="M196.1,119c0,4.8,3.9,8.8,8.8,8.8s8.8-3.9,8.8-8.8V48c0-4.8-3.9-8.8-8.8-8.8s-8.8,3.9-8.8,8.8V119z"/>
<path class="st58" d="M220.4,79c0,4.8,3.9,8.8,8.8,8.8s8.8-3.9,8.8-8.8V58c0-4.8-3.9-8.8-8.8-8.8s-8.8,3.9-8.8,8.8V79z"/>
<path class="st54" d="M244.7,69c0,4.8,3.9,8.8,8.8,8.8c4.8,0,8.8-3.9,8.8-8.8v-1c0-4.8-3.9-8.7-8.8-8.7c-4.8,0-8.8,3.9-8.8,8.7V69z"
	/>
<path class="st56" d="M116.5,71c0-4.8-3.9-8.7-8.8-8.7c-4.8,0-8.8,3.9-8.8,8.7v96c0,4.8,3.9,8.8,8.8,8.8c4.8,0,8.8-3.9,8.8-8.8V71z"
	/>
<path class="st20" d="M92.2,120c0-4.8-3.9-8.8-8.8-8.8s-8.8,3.9-8.8,8.8v61c0,4.8,3.9,8.8,8.8,8.8s8.8-3.9,8.8-8.8V120z"/>
<path class="st57" d="M67.9,83c0-4.8-3.9-8.8-8.8-8.8s-8.8,3.9-8.8,8.8v71c0,4.8,3.9,8.8,8.8,8.8s8.8-3.9,8.8-8.8V83z"/>
<path class="st58" d="M43.6,123c0-4.8-3.9-8.8-8.8-8.8s-8.7,3.9-8.7,8.8v21c0,4.8,3.9,8.8,8.7,8.8s8.8-3.9,8.8-8.8V123z"/>
<path class="st54" d="M19.3,133c0-4.8-3.9-8.8-8.8-8.8s-8.8,3.9-8.8,8.8v1c0,4.8,3.9,8.8,8.8,8.8s8.8-3.9,8.8-8.8V133z"/>
</svg>
